<?xml version="1.0" encoding="UTF-8" standalone="no"?> <svg width="64" height="64" viewBox="0 0 64 64" fill="none" xmlns="http://www.w3.org/2000/svg">
<path d="M53.55 57.8C53.5521 57.7634 53.5521 57.7266 53.55 57.69C53.8383 56.3117 53.989 54.9081 54 53.5C54 47.6652 51.6822 42.0694 47.5564 37.9436C43.4306 33.8178 37.8348 31.5 32 31.5C26.1653 31.5 20.5695 33.8178 16.4437 37.9436C12.3179 42.0694 10 47.6652 10 53.5C9.99721 54.9101 10.1346 56.317 10.41 57.7C10.4086 57.73 10.4086 57.76 10.41 57.79C10.4475 57.9139 10.5086 58.0294 10.59 58.13L10.72 58.26L10.88 58.37L11.06 58.44H11.25H11.35H52.61C52.7333 58.4391 52.8554 58.4153 52.97 58.37L53.08 58.31C53.1482 58.2741 53.2119 58.2305 53.27 58.18L53.36 58.07C53.4426 57.9777 53.5041 57.8685 53.54 57.75L53.55 57.8ZM32 33.5C37.3044 33.5 42.3914 35.6071 46.1422 39.3579C49.8929 43.1086 52 48.1957 52 53.5C51.9944 54.505 51.9108 55.508 51.75 56.5H12.25C12.0893 55.508 12.0057 54.505 12 53.5C12 48.1957 14.1072 43.1086 17.8579 39.3579C21.6086 35.6071 26.6957 33.5 32 33.5V33.5Z" fill="black"/>
<path d="M44 17.5C44 15.1266 43.2962 12.8066 41.9776 10.8332C40.6591 8.85977 38.7849 7.3217 36.5922 6.41345C34.3995 5.5052 31.9867 5.26756 29.6589 5.73058C27.3311 6.1936 25.193 7.33649 23.5147 9.01472C21.8365 10.693 20.6936 12.8312 20.2306 15.1589C19.7676 17.4867 20.0052 19.8995 20.9135 22.0922C21.8217 24.2849 23.3598 26.1591 25.3332 27.4776C27.3066 28.7962 29.6266 29.5 32 29.5C35.1826 29.5 38.2349 28.2357 40.4853 25.9853C42.7357 23.7349 44 20.6826 44 17.5ZM32 27.5C30.0222 27.5 28.0888 26.9135 26.4443 25.8147C24.7998 24.7159 23.5181 23.1541 22.7612 21.3268C22.0043 19.4996 21.8063 17.4889 22.1922 15.5491C22.578 13.6093 23.5304 11.8275 24.9289 10.4289C26.3275 9.03041 28.1093 8.078 30.0491 7.69215C31.9889 7.3063 33.9996 7.50433 35.8268 8.26121C37.6541 9.01809 39.2159 10.2998 40.3147 11.9443C41.4135 13.5888 42 15.5222 42 17.5C42 20.1522 40.9464 22.6957 39.0711 24.5711C37.1957 26.4464 34.6522 27.5 32 27.5Z" fill="url(#paint0_linear_188_4940)"/>
<path d="M44 43.5H38C37.7348 43.5 37.4804 43.6054 37.2929 43.7929C37.1054 43.9804 37 44.2348 37 44.5V49.5C37 50.5609 37.4214 51.5783 38.1716 52.3284C38.9217 53.0786 39.9391 53.5 41 53.5C42.0609 53.5 43.0783 53.0786 43.8284 52.3284C44.5786 51.5783 45 50.5609 45 49.5V44.5C45 44.2348 44.8946 43.9804 44.7071 43.7929C44.5196 43.6054 44.2652 43.5 44 43.5ZM43 49.5C43 50.0304 42.7893 50.5391 42.4142 50.9142C42.0391 51.2893 41.5304 51.5 41 51.5C40.4696 51.5 39.9609 51.2893 39.5858 50.9142C39.2107 50.5391 39 50.0304 39 49.5V45.5H43V49.5Z" fill="url(#paint1_linear_188_4940)"/>
<defs>
<linearGradient id="paint0_linear_188_4940" x1="20" y1="17.5" x2="44" y2="17.5" gradientUnits="userSpaceOnUse">
<stop stop-color="#EE4035"/>
<stop offset="1" stop-color="#ED3557"/>
</linearGradient>
<linearGradient id="paint1_linear_188_4940" x1="333" y1="528.5" x2="397" y2="528.5" gradientUnits="userSpaceOnUse">
<stop stop-color="#EE4035"/>
<stop offset="1" stop-color="#ED3557"/>
</linearGradient>
</defs>
</svg>
