<?xml version="1.0" encoding="UTF-8" standalone="no"?> <svg width="64" height="64" viewBox="0 0 64 64" fill="none" xmlns="http://www.w3.org/2000/svg">
<path d="M57 33H26C25.7348 33 25.4804 32.8946 25.2929 32.7071C25.1054 32.5196 25 32.2652 25 32C25 31.7348 25.1054 31.4804 25.2929 31.2929C25.4804 31.1054 25.7348 31 26 31H57C57.2652 31 57.5196 31.1054 57.7071 31.2929C57.8946 31.4804 58 31.7348 58 32C58 32.2652 57.8946 32.5196 57.7071 32.7071C57.5196 32.8946 57.2652 33 57 33Z" fill="black"/>
<path d="M57 16H26C25.7348 16 25.4804 15.8946 25.2929 15.7071C25.1054 15.5196 25 15.2652 25 15C25 14.7348 25.1054 14.4804 25.2929 14.2929C25.4804 14.1054 25.7348 14 26 14H57C57.2652 14 57.5196 14.1054 57.7071 14.2929C57.8946 14.4804 58 14.7348 58 15C58 15.2652 57.8946 15.5196 57.7071 15.7071C57.5196 15.8946 57.2652 16 57 16Z" fill="black"/>
<path d="M21.1401 29.4396L16.8201 28.8096L14.9001 24.8996C14.8171 24.7332 14.6894 24.5932 14.5313 24.4954C14.3732 24.3975 14.191 24.3457 14.0051 24.3457C13.8191 24.3457 13.6369 24.3975 13.4788 24.4954C13.3207 24.5932 13.193 24.7332 13.1101 24.8996L11.1801 28.8096L6.86007 29.4396C6.67487 29.4665 6.50093 29.5448 6.35803 29.6656C6.21513 29.7864 6.10899 29.9449 6.05169 30.1231C5.99439 30.3012 5.98823 30.4919 6.03391 30.6734C6.07958 30.8548 6.17526 31.0198 6.31007 31.1496L9.43007 34.1496L8.69007 38.4496C8.65958 38.6331 8.68086 38.8214 8.75152 38.9935C8.82217 39.1655 8.9394 39.3144 9.09003 39.4235C9.24066 39.5326 9.41873 39.5975 9.60422 39.6109C9.78971 39.6244 9.97527 39.5858 10.1401 39.4996L14.0001 37.4996L17.8601 39.4996C18.0249 39.5858 18.2104 39.6244 18.3959 39.6109C18.5814 39.5975 18.7595 39.5326 18.9101 39.4235C19.0607 39.3144 19.178 39.1655 19.2486 38.9935C19.3193 38.8214 19.3406 38.6331 19.3101 38.4496L18.5701 34.1496L21.6901 31.1496C21.8249 31.0198 21.9206 30.8548 21.9662 30.6734C22.0119 30.4919 22.0057 30.3012 21.9484 30.1231C21.8911 29.9449 21.785 29.7864 21.6421 29.6656C21.4992 29.5448 21.3253 29.4665 21.1401 29.4396V29.4396ZM16.8001 33.1196C16.6828 33.2331 16.595 33.3735 16.5445 33.5286C16.494 33.6837 16.4821 33.8489 16.5101 34.0096L17.0001 36.8296L14.4701 35.4996C14.3266 35.4243 14.1671 35.3849 14.0051 35.3849C13.8431 35.3849 13.6835 35.4243 13.5401 35.4996L11.0001 36.8296L11.4901 33.9996C11.518 33.8389 11.5062 33.6737 11.4556 33.5186C11.4051 33.3635 11.3173 33.2231 11.2001 33.1096L9.20007 31.1096L12.0001 30.7196C12.1603 30.6956 12.3122 30.6329 12.4429 30.5371C12.5735 30.4413 12.679 30.3152 12.7501 30.1696L14.0001 27.5996L15.2701 30.1696C15.3412 30.3152 15.4466 30.4413 15.5772 30.5371C15.7079 30.6329 15.8599 30.6956 16.0201 30.7196L18.8501 31.1296L16.8001 33.1196Z" fill="url(#paint0_linear_188_4973)"/>
<path d="M9.43007 17.1896L8.69007 21.4896C8.65958 21.6731 8.68086 21.8614 8.75152 22.0335C8.82217 22.2055 8.9394 22.3544 9.09003 22.4635C9.24066 22.5726 9.41873 22.6375 9.60422 22.6509C9.78971 22.6644 9.97527 22.6258 10.1401 22.5396L14.0001 20.5396L17.8601 22.5396C18.0249 22.6258 18.2104 22.6644 18.3959 22.6509C18.5814 22.6375 18.7595 22.5726 18.9101 22.4635C19.0607 22.3544 19.178 22.2055 19.2486 22.0335C19.3193 21.8614 19.3406 21.6731 19.3101 21.4896L18.5701 17.1896L21.6901 14.1896C21.8249 14.0598 21.9206 13.8948 21.9662 13.7134C22.0119 13.5319 22.0057 13.3412 21.9484 13.1631C21.8911 12.9849 21.785 12.8264 21.6421 12.7056C21.4992 12.5848 21.3253 12.5065 21.1401 12.4796L16.8201 11.8496L14.9001 7.89964C14.8171 7.73323 14.6894 7.59324 14.5313 7.49539C14.3732 7.39754 14.191 7.3457 14.0051 7.3457C13.8191 7.3457 13.6369 7.39754 13.4788 7.49539C13.3207 7.59324 13.193 7.73323 13.1101 7.89964L11.1801 11.8096L6.86007 12.4396C6.67487 12.4665 6.50093 12.5448 6.35803 12.6656C6.21513 12.7864 6.10899 12.9449 6.05169 13.1231C5.99439 13.3012 5.98823 13.4919 6.03391 13.6734C6.07958 13.8548 6.17526 14.0198 6.31007 14.1496L9.43007 17.1896ZM12.0001 13.7196C12.1603 13.6956 12.3122 13.6329 12.4429 13.5371C12.5735 13.4413 12.679 13.3152 12.7501 13.1696L14.0001 10.5996L15.2701 13.1696C15.3412 13.3152 15.4466 13.4413 15.5772 13.5371C15.7079 13.6329 15.8599 13.6956 16.0201 13.7196L18.8501 14.1296L16.8501 16.1296C16.7328 16.2431 16.645 16.3835 16.5945 16.5386C16.544 16.6937 16.5321 16.8589 16.5601 17.0196L17.0001 19.8296L14.4701 18.4996C14.3266 18.4243 14.1671 18.3849 14.0051 18.3849C13.8431 18.3849 13.6835 18.4243 13.5401 18.4996L11.0001 19.8296L11.4901 16.9996C11.518 16.8389 11.5062 16.6737 11.4556 16.5186C11.4051 16.3635 11.3173 16.2231 11.2001 16.1096L9.20007 14.1096L12.0001 13.7196Z" fill="url(#paint1_linear_188_4973)"/>
<path d="M21.1401 47.4396L16.8201 46.8096L14.9001 42.8996C14.8171 42.7332 14.6894 42.5932 14.5313 42.4954C14.3732 42.3975 14.191 42.3457 14.0051 42.3457C13.8191 42.3457 13.6369 42.3975 13.4788 42.4954C13.3207 42.5932 13.193 42.7332 13.1101 42.8996L11.1801 46.8096L6.86007 47.4396C6.67487 47.4665 6.50093 47.5448 6.35803 47.6656C6.21513 47.7864 6.10899 47.9449 6.05169 48.1231C5.99439 48.3012 5.98823 48.4919 6.03391 48.6734C6.07958 48.8548 6.17526 49.0198 6.31007 49.1496L9.43007 52.1496L8.69007 56.4496C8.65958 56.6331 8.68086 56.8214 8.75152 56.9935C8.82217 57.1655 8.9394 57.3144 9.09003 57.4235C9.24066 57.5326 9.41873 57.5975 9.60422 57.6109C9.78971 57.6244 9.97527 57.5858 10.1401 57.4996L14.0001 55.4996L17.8601 57.4996C18.0249 57.5858 18.2104 57.6244 18.3959 57.6109C18.5814 57.5975 18.7595 57.5326 18.9101 57.4235C19.0607 57.3144 19.178 57.1655 19.2486 56.9935C19.3193 56.8214 19.3406 56.6331 19.3101 56.4496L18.5701 52.1496L21.6901 49.1496C21.8249 49.0198 21.9206 48.8548 21.9662 48.6734C22.0119 48.4919 22.0057 48.3012 21.9484 48.1231C21.8911 47.9449 21.785 47.7864 21.6421 47.6656C21.4992 47.5448 21.3253 47.4665 21.1401 47.4396V47.4396ZM16.8001 51.1196C16.6828 51.2331 16.595 51.3735 16.5445 51.5286C16.494 51.6837 16.4821 51.8489 16.5101 52.0096L17.0001 54.8296L14.4701 53.4996C14.3266 53.4243 14.1671 53.3849 14.0051 53.3849C13.8431 53.3849 13.6835 53.4243 13.5401 53.4996L11.0001 54.8296L11.4901 51.9996C11.518 51.8389 11.5062 51.6737 11.4556 51.5186C11.4051 51.3635 11.3173 51.2231 11.2001 51.1096L9.20007 49.1096L12.0001 48.7196C12.1603 48.6956 12.3122 48.6329 12.4429 48.5371C12.5735 48.4413 12.679 48.3152 12.7501 48.1696L14.0001 45.5996L15.2701 48.1696C15.3412 48.3152 15.4466 48.4413 15.5772 48.5371C15.7079 48.6329 15.8599 48.6956 16.0201 48.7196L18.8501 49.1296L16.8001 51.1196Z" fill="url(#paint2_linear_188_4973)"/>
<path d="M57 51H26C25.7348 51 25.4804 50.8946 25.2929 50.7071C25.1054 50.5196 25 50.2652 25 50C25 49.7348 25.1054 49.4804 25.2929 49.2929C25.4804 49.1054 25.7348 49 26 49H57C57.2652 49 57.5196 49.1054 57.7071 49.2929C57.8946 49.4804 58 49.7348 58 50C58 50.2652 57.8946 50.5196 57.7071 50.7071C57.5196 50.8946 57.2652 51 57 51Z" fill="black"/>
<defs>
<linearGradient id="paint0_linear_188_4973" x1="6.00007" y1="32.0196" x2="22.0001" y2="32.0196" gradientUnits="userSpaceOnUse">
<stop stop-color="#EE4035"/>
<stop offset="1" stop-color="#ED3557"/>
</linearGradient>
<linearGradient id="paint1_linear_188_4973" x1="101.961" y1="237.27" x2="357.845" y2="237.27" gradientUnits="userSpaceOnUse">
<stop stop-color="#EE4035"/>
<stop offset="1" stop-color="#ED3557"/>
</linearGradient>
<linearGradient id="paint2_linear_188_4973" x1="101.961" y1="806.044" x2="357.845" y2="806.044" gradientUnits="userSpaceOnUse">
<stop stop-color="#EE4035"/>
<stop offset="1" stop-color="#ED3557"/>
</linearGradient>
</defs>
</svg>
