<?xml version="1.0" encoding="UTF-8" standalone="no"?> <svg width="64" height="64" viewBox="0 0 64 64" fill="none" xmlns="http://www.w3.org/2000/svg">
<path d="M60 57H53V35C53 34.7348 52.8946 34.4804 52.7071 34.2929C52.5196 34.1054 52.2652 34 52 34C51.7348 34 51.4804 34.1054 51.2929 34.2929C51.1054 34.4804 51 34.7348 51 35V57H28V39C28 38.7348 27.8946 38.4804 27.7071 38.2929C27.5196 38.1054 27.2652 38 27 38H16C15.7348 38 15.4804 38.1054 15.2929 38.2929C15.1054 38.4804 15 38.7348 15 39V57H13V35C13 34.7348 12.8946 34.4804 12.7071 34.2929C12.5196 34.1054 12.2652 34 12 34C11.7348 34 11.4804 34.1054 11.2929 34.2929C11.1054 34.4804 11 34.7348 11 35V57H4C3.73478 57 3.48043 57.1054 3.29289 57.2929C3.10536 57.4804 3 57.7348 3 58C3 58.2652 3.10536 58.5196 3.29289 58.7071C3.48043 58.8946 3.73478 59 4 59H60C60.2652 59 60.5196 58.8946 60.7071 58.7071C60.8946 58.5196 61 58.2652 61 58C61 57.7348 60.8946 57.4804 60.7071 57.2929C60.5196 57.1054 60.2652 57 60 57ZM17 57V40H26V57H17Z" fill="black"/>
<path d="M48 38H31C30.7348 38 30.4804 38.1054 30.2929 38.2929C30.1054 38.4804 30 38.7348 30 39V54C30 54.2652 30.1054 54.5196 30.2929 54.7071C30.4804 54.8946 30.7348 55 31 55H48C48.2652 55 48.5196 54.8946 48.7071 54.7071C48.8946 54.5196 49 54.2652 49 54V39C49 38.7348 48.8946 38.4804 48.7071 38.2929C48.5196 38.1054 48.2652 38 48 38ZM47 53H32V40H47V53Z" fill="url(#paint0_linear_188_4981)"/>
<path d="M57 29H37C36.7348 29 36.4804 29.1054 36.2929 29.2929C36.1054 29.4804 36 29.7348 36 30C36 31.0609 35.5786 32.0783 34.8284 32.8284C34.0783 33.5786 33.0609 34 32 34C30.9391 34 29.9217 33.5786 29.1716 32.8284C28.4214 32.0783 28 31.0609 28 30C28 29.7348 27.8946 29.4804 27.7071 29.2929C27.5196 29.1054 27.2652 29 27 29C26.7348 29 26.4804 29.1054 26.2929 29.2929C26.1054 29.4804 26 29.7348 26 30C26 31.0609 25.5786 32.0783 24.8284 32.8284C24.0783 33.5786 23.0609 34 22 34C20.9391 34 19.9217 33.5786 19.1716 32.8284C18.4214 32.0783 18 31.0609 18 30C18 29.7348 17.8946 29.4804 17.7071 29.2929C17.5196 29.1054 17.2652 29 17 29C16.7348 29 16.4804 29.1054 16.2929 29.2929C16.1054 29.4804 16 29.7348 16 30C16 31.0609 15.5786 32.0783 14.8284 32.8284C14.0783 33.5786 13.0609 34 12 34C10.9391 34 9.92172 33.5786 9.17157 32.8284C8.42143 32.0783 8 31.0609 8 30C8 29.7348 7.89464 29.4804 7.70711 29.2929C7.51957 29.1054 7.26522 29 7 29C6.73478 29 6.48043 29.1054 6.29289 29.2929C6.10536 29.4804 6 29.7348 6 30C6.00142 31.2884 6.41751 32.5421 7.18672 33.5756C7.95593 34.6092 9.03739 35.3677 10.2711 35.7389C11.5048 36.1101 12.8253 36.0744 14.0371 35.637C15.249 35.1995 16.2878 34.3836 17 33.31C17.5473 34.1351 18.2903 34.8119 19.1627 35.2801C20.0351 35.7483 21.0099 35.9934 22 35.9934C22.9901 35.9934 23.9649 35.7483 24.8373 35.2801C25.7097 34.8119 26.4527 34.1351 27 33.31C27.5473 34.1351 28.2903 34.8119 29.1627 35.2801C30.0351 35.7483 31.0099 35.9934 32 35.9934C32.9901 35.9934 33.9649 35.7483 34.8373 35.2801C35.7097 34.8119 36.4527 34.1351 37 33.31C37.5473 34.1351 38.2903 34.8119 39.1627 35.2801C40.0351 35.7483 41.0099 35.9934 42 35.9934C42.9901 35.9934 43.9649 35.7483 44.8373 35.2801C45.7097 34.8119 46.4527 34.1351 47 33.31C47.7122 34.3836 48.751 35.1995 49.9629 35.637C51.1747 36.0744 52.4952 36.1101 53.7289 35.7389C54.9626 35.3677 56.0441 34.6092 56.8133 33.5756C57.5825 32.5421 57.9986 31.2884 58 30C58 29.7348 57.8946 29.4804 57.7071 29.2929C57.5196 29.1054 57.2652 29 57 29ZM42 34C41.1137 33.9993 40.2528 33.7044 39.5523 33.1614C38.8519 32.6184 38.3516 31.8581 38.13 31H45.88C45.658 31.8598 45.1562 32.6213 44.4537 33.1644C43.7512 33.7076 42.888 34.0016 42 34V34ZM52 34C51.1137 33.9993 50.2528 33.7044 49.5523 33.1614C48.8519 32.6184 48.3516 31.8581 48.13 31H55.88C55.658 31.8598 55.1562 32.6213 54.4537 33.1644C53.7512 33.7076 52.888 34.0016 52 34V34Z" fill="url(#paint1_linear_188_4981)"/>
<path d="M6.99988 31.0001H56.9999C57.2651 31.0001 57.5195 30.8947 57.707 30.7072C57.8945 30.5196 57.9999 30.2653 57.9999 30.0001V26.0001C58.0059 25.9369 58.0059 25.8733 57.9999 25.8101C58.0019 25.7734 58.0019 25.7367 57.9999 25.7001L52.9999 9.70007C52.9339 9.48936 52.8 9.30642 52.6191 9.17979C52.4382 9.05317 52.2205 8.98997 51.9999 9.00007H39.9999C39.7347 9.00007 39.4803 9.10543 39.2928 9.29296C39.1052 9.4805 38.9999 9.73485 38.9999 10.0001C38.9999 10.2653 39.1052 10.5196 39.2928 10.7072C39.4803 10.8947 39.7347 11.0001 39.9999 11.0001H51.2599L55.6399 25.0001H8.35988L12.7299 11.0001H23.9999C24.2651 11.0001 24.5195 10.8947 24.707 10.7072C24.8945 10.5196 24.9999 10.2653 24.9999 10.0001C24.9999 9.73485 24.8945 9.4805 24.707 9.29296C24.5195 9.10543 24.2651 9.00007 23.9999 9.00007H11.9999C11.7793 8.98997 11.5616 9.05317 11.3807 9.17979C11.1998 9.30642 11.0659 9.48936 10.9999 9.70007L5.99988 25.7001C5.99787 25.7367 5.99787 25.7734 5.99988 25.8101C5.99385 25.8733 5.99385 25.9369 5.99988 26.0001V30.0001C5.99988 30.2653 6.10524 30.5196 6.29278 30.7072C6.48031 30.8947 6.73467 31.0001 6.99988 31.0001ZM36.9999 27.0001H55.9999V29.0001H7.99988V27.0001H36.9999Z" fill="black"/>
<path d="M40 15H24C23.7348 15 23.4804 14.8946 23.2929 14.7071C23.1054 14.5196 23 14.2652 23 14V6C23 5.73478 23.1054 5.48043 23.2929 5.29289C23.4804 5.10536 23.7348 5 24 5H40C40.2652 5 40.5196 5.10536 40.7071 5.29289C40.8946 5.48043 41 5.73478 41 6V14C41 14.2652 40.8946 14.5196 40.7071 14.7071C40.5196 14.8946 40.2652 15 40 15ZM25 13H39V7H25V13Z" fill="url(#paint2_linear_188_4981)"/>
<defs>
<linearGradient id="paint0_linear_188_4981" x1="30" y1="46.5" x2="49" y2="46.5" gradientUnits="userSpaceOnUse">
<stop stop-color="#EE4035"/>
<stop offset="1" stop-color="#ED3557"/>
</linearGradient>
<linearGradient id="paint1_linear_188_4981" x1="318" y1="256.285" x2="3022" y2="256.285" gradientUnits="userSpaceOnUse">
<stop stop-color="#EE4035"/>
<stop offset="1" stop-color="#ED3557"/>
</linearGradient>
<linearGradient id="paint2_linear_188_4981" x1="437" y1="105" x2="761" y2="105" gradientUnits="userSpaceOnUse">
<stop stop-color="#EE4035"/>
<stop offset="1" stop-color="#ED3557"/>
</linearGradient>
</defs>
</svg>
