<?xml version="1.0" encoding="UTF-8" standalone="no"?> <svg width="64" height="64" viewBox="0 0 64 64" fill="none" xmlns="http://www.w3.org/2000/svg">
<path d="M60.9201 30.8202C60.9046 30.7479 60.8811 30.6774 60.8501 30.6102C60.6433 29.8633 60.1983 29.2043 59.5829 28.7332C58.9674 28.2621 58.2151 28.0048 57.4401 28.0002H57.0001L35.9301 15.2102C35.7069 15.1183 35.458 15.1101 35.2294 15.1872C35.0007 15.2644 34.8076 15.4216 34.6857 15.63C34.5639 15.8383 34.5215 16.0837 34.5664 16.3208C34.6113 16.558 34.7405 16.7709 34.9301 16.9202L53.1401 28.0002H10.8601L29.1101 16.9202C29.2996 16.7709 29.4288 16.558 29.4737 16.3208C29.5186 16.0837 29.4762 15.8383 29.3544 15.63C29.2325 15.4216 29.0395 15.2644 28.8108 15.1872C28.5821 15.1101 28.3332 15.1183 28.1101 15.2102L7.00007 28.0002H6.56007C5.82295 28.0028 5.10481 28.234 4.50475 28.6621C3.90469 29.0902 3.45232 29.6941 3.21007 30.3902C3.12242 30.5057 3.06093 30.6388 3.02985 30.7804C2.99877 30.922 2.99884 31.0687 3.03007 31.2102C3.03007 31.3302 3.03007 31.4402 3.03007 31.5602V51.4402C3.03263 52.3784 3.40442 53.2779 4.06502 53.9441C4.72562 54.6103 5.62192 54.9897 6.56007 55.0002H57.4401C58.3834 54.9976 59.2874 54.6217 59.9544 53.9546C60.6215 53.2876 60.9974 52.3836 61.0001 51.4402V31.5602C60.9994 31.3114 60.9726 31.0634 60.9201 30.8202V30.8202ZM59.0001 51.4402C59.0001 51.854 58.8357 52.2508 58.5432 52.5433C58.2506 52.8359 57.8538 53.0002 57.4401 53.0002H6.56007C6.14633 53.0002 5.74954 52.8359 5.45698 52.5433C5.16442 52.2508 5.00007 51.854 5.00007 51.4402V31.5602C5.00007 31.1465 5.16442 30.7497 5.45698 30.4571C5.74954 30.1646 6.14633 30.0002 6.56007 30.0002H57.4401C57.7872 30.0009 58.1241 30.1173 58.3976 30.331C58.6711 30.5448 58.8655 30.8436 58.9501 31.1802V31.1802C58.9825 31.3043 58.9993 31.432 59.0001 31.5602V51.4402Z" fill="black"/>
<path d="M37 14C37 13.0111 36.7068 12.0444 36.1574 11.2222C35.6079 10.3999 34.8271 9.75904 33.9134 9.3806C32.9998 9.00217 31.9945 8.90315 31.0246 9.09608C30.0546 9.289 29.1637 9.76521 28.4645 10.4645C27.7652 11.1637 27.289 12.0546 27.0961 13.0246C26.9031 13.9945 27.0022 14.9998 27.3806 15.9134C27.759 16.8271 28.3999 17.6079 29.2222 18.1574C30.0444 18.7068 31.0111 19 32 19C33.3261 19 34.5979 18.4732 35.5355 17.5355C36.4732 16.5979 37 15.3261 37 14V14ZM32 17C31.4067 17 30.8266 16.8241 30.3333 16.4944C29.8399 16.1648 29.4554 15.6962 29.2284 15.1481C29.0013 14.5999 28.9419 13.9967 29.0576 13.4147C29.1734 12.8328 29.4591 12.2982 29.8787 11.8787C30.2982 11.4591 30.8328 11.1734 31.4147 11.0576C31.9967 10.9419 32.5999 11.0013 33.1481 11.2284C33.6962 11.4554 34.1648 11.8399 34.4944 12.3333C34.8241 12.8266 35 13.4067 35 14C35 14.7957 34.6839 15.5587 34.1213 16.1213C33.5587 16.6839 32.7957 17 32 17V17Z" fill="url(#paint0_linear_188_4899)"/>
<path d="M19.51 41.5005C19.2871 41.4491 19.0587 41.4256 18.83 41.4305H16.67C16.4442 41.4192 16.2225 41.4943 16.05 41.6405C15.9759 41.705 15.9169 41.785 15.8771 41.8749C15.8374 41.9647 15.8179 42.0622 15.82 42.1605C15.8092 42.2682 15.8288 42.3768 15.8765 42.474C15.9242 42.5712 15.9982 42.6532 16.09 42.7105C16.3417 42.8329 16.6207 42.888 16.9 42.8705H18.38V44.4005C18.0047 44.6068 17.6093 44.7744 17.2 44.9005C16.7939 45.0177 16.3727 45.075 15.95 45.0705C15.5508 45.0932 15.1516 45.0248 14.7826 44.8706C14.4136 44.7165 14.0845 44.4805 13.82 44.1805C13.2693 43.449 12.9996 42.5441 13.06 41.6305C13.0554 41.1564 13.1228 40.6843 13.26 40.2305C13.3765 39.8423 13.5704 39.4817 13.83 39.1705C14.0721 38.8851 14.3767 38.6593 14.72 38.5105C15.0931 38.3528 15.495 38.2745 15.9 38.2805C16.2629 38.2664 16.6246 38.3312 16.96 38.4705C17.2117 38.5816 17.4367 38.7453 17.62 38.9505C17.8388 39.2166 18.0393 39.4972 18.22 39.7905C18.304 39.9044 18.4136 39.9969 18.54 40.0605C18.6633 40.1258 18.8006 40.1601 18.94 40.1605C19.0579 40.1633 19.1752 40.1427 19.2851 40.0997C19.395 40.0568 19.4952 39.9925 19.58 39.9105C19.6658 39.8338 19.7342 39.7398 19.7807 39.6346C19.8273 39.5294 19.8509 39.4155 19.85 39.3005C19.8376 39.0289 19.7586 38.7644 19.62 38.5305C19.4439 38.216 19.2098 37.9377 18.93 37.7105C18.5785 37.4001 18.1713 37.1592 17.73 37.0005C17.1695 36.8325 16.5844 36.7615 16 36.7905C15.2953 36.7801 14.5944 36.8952 13.93 37.1305C13.3461 37.3457 12.8168 37.6872 12.38 38.1305C11.9341 38.5652 11.5922 39.095 11.38 39.6805C11.1559 40.3232 11.0442 40.9998 11.05 41.6805C11.0441 42.362 11.1593 43.0392 11.39 43.6805C11.6083 44.26 11.9494 44.7853 12.39 45.2205C12.8198 45.6629 13.3423 46.0044 13.92 46.2205C14.5611 46.451 15.2388 46.5628 15.92 46.5505C16.5001 46.5557 17.0783 46.4851 17.64 46.3405C18.2147 46.1791 18.7685 45.9508 19.29 45.6605C19.4661 45.5707 19.6306 45.4599 19.78 45.3305C19.8993 45.2254 19.9889 45.091 20.04 44.9405C20.093 44.7519 20.1166 44.5563 20.11 44.3605V42.5505C20.1269 42.2957 20.0677 42.0416 19.94 41.8205C19.8396 41.6658 19.6871 41.5522 19.51 41.5005Z" fill="url(#paint1_linear_188_4899)"/>
<path d="M29.28 37.3901C28.5072 36.9722 27.6381 36.7652 26.7599 36.7901C26.1009 36.7798 25.4459 36.8952 24.8299 37.1301C24.2803 37.3498 23.7878 37.6918 23.3899 38.1301C22.9851 38.5745 22.6785 39.0992 22.4899 39.6701C22.276 40.3148 22.1712 40.9908 22.1799 41.6701C22.1714 42.3486 22.2727 43.024 22.4799 43.6701C22.6605 44.2461 22.9604 44.7776 23.36 45.2301C23.7645 45.6698 24.2638 46.0118 24.8199 46.2301C26.11 46.7106 27.5299 46.7106 28.8199 46.2301C29.3736 46.0123 29.8697 45.6702 30.2699 45.2301C30.6719 44.7815 30.9751 44.2534 31.1599 43.6801C31.367 43.0339 31.4683 42.3586 31.4599 41.6801C31.4814 40.7899 31.2966 39.9069 30.9199 39.1001C30.5661 38.3723 29.9924 37.7741 29.28 37.3901V37.3901ZM29.11 43.5301C28.8988 43.9994 28.5501 44.3934 28.11 44.6601C27.7492 44.8703 27.3444 44.9933 26.9277 45.0194C26.511 45.0454 26.094 44.9738 25.7099 44.8101C25.3825 44.6627 25.0921 44.4441 24.86 44.1701C24.5979 43.853 24.4039 43.4854 24.29 43.0901C24.1503 42.6197 24.0829 42.1308 24.0899 41.6401C24.082 41.1526 24.1495 40.6669 24.29 40.2001C24.4016 39.817 24.5886 39.46 24.8399 39.1501C25.0684 38.8789 25.3557 38.6634 25.6799 38.5201C26.0137 38.3726 26.375 38.2976 26.7399 38.3001C27.2441 38.2903 27.7405 38.4257 28.1699 38.6901C28.6148 38.96 28.9644 39.362 29.1699 39.8401C29.4027 40.4075 29.515 41.017 29.4999 41.6301C29.5136 42.2846 29.3803 42.9339 29.11 43.5301V43.5301Z" fill="url(#paint2_linear_188_4899)"/>
<path d="M40.37 37.3901C39.5973 36.9722 38.7282 36.7652 37.85 36.7901C37.1909 36.7798 36.5359 36.8952 35.92 37.1301C35.3704 37.3498 34.8779 37.6918 34.48 38.1301C34.0752 38.5745 33.7686 39.0992 33.58 39.6701C33.3661 40.3148 33.2613 40.9908 33.27 41.6701C33.2615 42.3486 33.3628 43.024 33.57 43.6701C33.7506 44.2461 34.0505 44.7776 34.45 45.2301C34.8546 45.6698 35.3538 46.0118 35.91 46.2301C37.2001 46.7106 38.62 46.7106 39.91 46.2301C40.4636 46.0123 40.9598 45.6702 41.36 45.2301C41.762 44.7815 42.0652 44.2534 42.25 43.6801C42.4571 43.0339 42.5584 42.3586 42.55 41.6801C42.5715 40.7824 42.3832 39.8922 42 39.0801C41.6454 38.3612 41.0757 37.7705 40.37 37.3901V37.3901ZM40.2 43.5301C39.9889 43.9994 39.6401 44.3934 39.2 44.6601C38.8393 44.8703 38.4345 44.9933 38.0178 45.0194C37.6011 45.0454 37.1841 44.9738 36.8 44.8101C36.4726 44.6627 36.1822 44.4441 35.95 44.1701C35.688 43.853 35.494 43.4854 35.38 43.0901C35.2404 42.6197 35.173 42.1308 35.18 41.6401C35.1721 41.1526 35.2396 40.6669 35.38 40.2001C35.5126 39.8113 35.7237 39.454 36 39.1501C36.2285 38.8789 36.5158 38.6634 36.84 38.5201C37.1738 38.3726 37.5351 38.2976 37.9 38.3001C38.4042 38.2903 38.9006 38.4257 39.33 38.6901C39.7749 38.96 40.1245 39.362 40.33 39.8401C40.5628 40.4075 40.6751 41.017 40.66 41.6301C40.6518 42.29 40.4946 42.9395 40.2 43.5301V43.5301Z" fill="url(#paint3_linear_188_4899)"/>
<path d="M51.4 37.8102C51.0397 37.4871 50.6079 37.254 50.14 37.1302C49.591 37.0173 49.03 36.9736 48.47 37.0002H46C45.8398 36.9696 45.6744 36.9786 45.5184 37.0266C45.3624 37.0745 45.2205 37.1599 45.1051 37.2753C44.9898 37.3907 44.9044 37.5326 44.8564 37.6886C44.8084 37.8446 44.7994 38.0099 44.83 38.1702V45.0002C44.8238 45.2493 44.8507 45.4982 44.91 45.7402C44.9609 45.926 45.0831 46.0841 45.25 46.1802C45.4947 46.3023 45.7672 46.3575 46.04 46.3402H48.53C48.9215 46.3446 49.3128 46.3179 49.7 46.2602C50.0452 46.2104 50.3818 46.1128 50.7 45.9702C51.0032 45.8303 51.2831 45.6448 51.53 45.4202C51.8462 45.1322 52.113 44.7944 52.32 44.4202C52.5344 44.0251 52.6894 43.6005 52.78 43.1602C52.8836 42.6501 52.9338 42.1307 52.93 41.6102C52.9733 40.9029 52.8584 40.1949 52.5937 39.5376C52.3291 38.8803 51.9213 38.2902 51.4 37.8102V37.8102ZM50 44.4202C49.8536 44.5482 49.6838 44.6466 49.5 44.7102C49.3195 44.7766 49.1314 44.8203 48.94 44.8402C48.76 44.8402 48.51 44.8402 48.19 44.8402H46.72V38.4402H48C48.5033 38.4301 49.0054 38.4941 49.49 38.6302C49.9196 38.7917 50.2753 39.1047 50.49 39.5102C50.811 40.158 50.9558 40.8788 50.91 41.6002C50.9745 42.1082 50.9265 42.6242 50.7692 43.1116C50.6119 43.5989 50.3493 44.0457 50 44.4202Z" fill="url(#paint4_linear_188_4899)"/>
<defs>
<linearGradient id="paint0_linear_188_4899" x1="27" y1="14" x2="37" y2="14" gradientUnits="userSpaceOnUse">
<stop stop-color="#EE4035"/>
<stop offset="1" stop-color="#ED3557"/>
</linearGradient>
<linearGradient id="paint1_linear_188_4899" x1="111.921" y1="443.785" x2="193.488" y2="443.785" gradientUnits="userSpaceOnUse">
<stop stop-color="#EE4035"/>
<stop offset="1" stop-color="#ED3557"/>
</linearGradient>
<linearGradient id="paint2_linear_188_4899" x1="227.965" y1="445.253" x2="313.733" y2="445.253" gradientUnits="userSpaceOnUse">
<stop stop-color="#EE4035"/>
<stop offset="1" stop-color="#ED3557"/>
</linearGradient>
<linearGradient id="paint3_linear_188_4899" x1="342.087" y1="445.253" x2="427.761" y2="445.253" gradientUnits="userSpaceOnUse">
<stop stop-color="#EE4035"/>
<stop offset="1" stop-color="#ED3557"/>
</linearGradient>
<linearGradient id="paint4_linear_188_4899" x1="408.969" y1="427.051" x2="474.47" y2="427.051" gradientUnits="userSpaceOnUse">
<stop stop-color="#EE4035"/>
<stop offset="1" stop-color="#ED3557"/>
</linearGradient>
</defs>
</svg>
